<svg width="48" height="48" viewBox="0 0 48 48" fill="none" xmlns="http://www.w3.org/2000/svg">
<path fill-rule="evenodd" clip-rule="evenodd" d="M32.199 42.434C35.1924 40.4386 37.7303 36.4159 38.2777 33.9345C38.8252 31.4531 39.0165 30.0938 38.8252 27.649C38.6338 25.2043 37.0142 20.2358 34.9747 17.0127C32.9351 13.7896 30.219 11.0505 27.0153 8.98602C29.361 17.2031 24.2986 17.625 24.2986 17.625C22.6379 4.78779 15.2054 3 15.2054 3C17.121 13.4195 14.6819 17.2099 12.4854 20.6235C12.1225 21.1874 11.7663 21.741 11.4374 22.3125C9.11745 26.3438 9.01746 30.2344 9.29878 32.625C9.58011 35.0156 10.4237 37.2529 12.7675 39.9844C15.1112 42.7159 18.4638 44.277 22.0257 44.7682C25.5875 45.2595 29.2057 44.4293 32.199 42.434ZM32.3213 25.2581C35.9343 26.3688 38.2909 28.1599 38.2909 30.0498C38.2909 31.9339 35.9459 33.7249 32.356 34.8356C33.1956 38.5224 32.8308 41.459 31.2038 42.4011C30.8217 42.6221 30.3816 42.7267 29.8952 42.7267C28.303 42.7267 26.2185 41.5986 24.1109 39.6331C22.0033 41.6102 19.9189 42.75 18.3266 42.75C17.8402 42.75 17.4002 42.6453 17.0238 42.4244C15.391 41.4823 15.0205 38.5399 15.8542 34.8414C12.2412 33.7308 9.88464 31.9397 9.88464 30.0498C9.88464 28.1657 12.2296 26.3804 15.8311 25.2639C14.9915 21.5772 15.3563 18.6405 16.9833 17.6985C17.3655 17.4775 17.8055 17.3728 18.2919 17.3728V17.367C19.8842 17.367 21.9686 18.4951 24.0762 20.4607C26.1838 18.4835 28.2682 17.3438 29.8605 17.3438V17.3496C30.3388 17.3504 30.7768 17.4551 31.1517 17.6752C32.7845 18.6173 33.1551 21.5597 32.3213 25.2581ZM29.8547 18.6405C28.6505 18.6436 26.8814 19.6087 24.9968 21.3678C25.8132 22.2226 26.6238 23.1996 27.4055 24.2754C28.7083 24.4149 29.9474 24.6301 31.0822 24.9092C31.2096 24.3219 31.3138 23.7462 31.3775 23.1996C31.6439 20.9782 31.3022 19.2511 30.5148 18.7975C30.3353 18.6987 30.1211 18.6463 29.8547 18.6463V18.6405ZM23.1556 21.3736C21.268 19.6233 19.4904 18.6638 18.2919 18.6638V18.6696C18.0255 18.6696 17.7997 18.7161 17.626 18.8208C16.8443 19.2802 16.5085 21.0073 16.7807 23.2286C16.8501 23.7695 16.9486 24.3335 17.0817 24.915C18.2166 24.6301 19.4557 24.4149 20.7642 24.2754C21.5343 23.1996 22.3449 22.2284 23.1556 21.3736ZM29.9705 28.4681C30.2716 27.6947 30.5379 26.9212 30.7522 26.1711C29.9937 25.985 29.2004 25.8338 28.3782 25.7117C28.662 26.1537 28.9457 26.6072 29.212 27.0724C29.4841 27.5377 29.7331 28.0029 29.9705 28.4681ZM26.7049 34.5856C27.1855 33.8936 27.6487 33.1492 28.1003 32.3642C28.5346 31.6024 28.9341 30.8232 29.2989 30.044C28.9341 29.2647 28.5346 28.4913 28.0945 27.7295C27.6429 26.9503 27.1739 26.2118 26.6933 25.5198C25.8364 25.45 24.9621 25.4093 24.0878 25.4093C23.2077 25.4093 22.3334 25.45 21.4706 25.5256C20.9901 26.2176 20.5269 26.962 20.0752 27.747C19.641 28.5088 19.2357 29.288 18.8767 30.0672C19.2414 30.8465 19.641 31.6199 20.081 32.3816C20.5326 33.1609 21.0016 33.8994 21.4822 34.5914C22.3392 34.6612 23.2135 34.7019 24.0878 34.7019C24.9679 34.7019 25.8422 34.6612 26.7049 34.5856ZM30.7695 33.9226C30.5495 33.1667 30.2832 32.3875 29.9705 31.6082C29.7331 32.0734 29.4841 32.5445 29.2178 33.0097C28.9515 33.4807 28.6677 33.9401 28.384 34.3879C29.212 34.2657 30.011 34.1087 30.7695 33.9226ZM22.4897 35.9521C23.0224 36.6325 23.5609 37.2547 24.0993 37.813C24.632 37.2547 25.1705 36.6325 25.6916 35.9521C25.1647 35.9812 24.6262 35.9928 24.082 35.9928C23.5435 35.9928 23.0108 35.9754 22.4897 35.9521ZM17.4176 33.9285C18.1761 34.1145 18.9693 34.2657 19.7915 34.3879C19.5078 33.9459 19.2299 33.4923 18.9577 33.0271C18.6856 32.5619 18.4366 32.0967 18.1992 31.6315C17.8981 32.4049 17.6318 33.1783 17.4176 33.9285ZM25.68 24.1474C25.1474 23.4671 24.6089 22.8449 24.0704 22.2866C23.5377 22.8449 22.9992 23.4671 22.4781 24.1474C23.005 24.1184 23.5435 24.1067 24.0878 24.1067C24.6262 24.1067 25.1589 24.1242 25.68 24.1474ZM18.9519 27.0899C19.2183 26.6189 19.502 26.1595 19.7857 25.7117C18.9577 25.8338 18.1587 25.9908 17.4002 26.1711C17.6202 26.9271 17.8866 27.7063 18.1992 28.4855C18.4366 28.0203 18.6856 27.5551 18.9519 27.0899ZM11.17 30.0498C11.17 30.9628 12.496 32.1141 14.5457 32.9922C15.0494 33.2074 15.5937 33.4051 16.1669 33.5854C16.4912 32.4514 16.9196 31.271 17.4523 30.0614C16.9138 28.8461 16.4796 27.6598 16.1495 26.52C15.5879 26.7003 15.0436 26.8922 14.5457 27.1073C12.496 27.9796 11.17 29.1368 11.17 30.0498ZM16.798 36.9C16.5317 39.1214 16.8733 40.8485 17.6608 41.302C17.8345 41.4009 18.0545 41.4532 18.315 41.459C19.5194 41.459 21.2911 40.4937 23.1787 38.7318C22.3623 37.8769 21.5517 36.9 20.77 35.8242C19.4673 35.6846 18.2282 35.4695 17.0933 35.1903C16.9659 35.7777 16.8617 36.3534 16.798 36.9ZM30.5495 41.2788C31.3312 40.8194 31.667 39.0923 31.3949 36.8709C31.3312 36.3301 31.227 35.766 31.0938 35.1787C29.9589 35.4637 28.7199 35.6788 27.4113 35.8184C26.6412 36.8942 25.8306 37.8653 25.02 38.7201C26.9075 40.4705 28.6851 41.43 29.8837 41.43C30.15 41.43 30.3758 41.3834 30.5495 41.2788ZM32.0202 33.5796C32.5819 33.3993 33.1261 33.2074 33.6241 32.9922C35.6738 32.12 36.9997 30.9628 37.0055 30.0498C37.0055 29.1368 35.6796 27.9854 33.6299 27.1073C33.1203 26.8922 32.5761 26.6945 32.0028 26.5142C31.6786 27.6481 31.2501 28.8286 30.7174 30.0382C31.2559 31.2535 31.6902 32.4398 32.0202 33.5796Z" fill="#FFC0CB"/>
</svg>
